<svg width="192" height="150" viewBox="0 0 192 150" fill="none" xmlns="http://www.w3.org/2000/svg">
<path d="M184.847 53.835C182.068 50.385 179.097 47.16 176.03 44.16C175.194 43.33 174.143 42.6478 172.945 42.1581C171.748 41.6685 170.432 41.3824 169.084 41.3186C167.736 41.2549 166.385 41.415 165.122 41.7883C163.858 42.1617 162.709 42.7399 161.751 43.485L133.001 65.985C135.11 70.935 135.493 76.635 133.576 82.56C131.864 87.8034 128.38 92.5896 123.49 96.4164C118.6 100.243 112.484 102.97 105.785 104.31C98.2137 105.81 90.9304 105.51 84.6054 103.86L61.0304 122.31C56.2387 126.06 57.7721 132.66 64.1929 134.61C74.4471 137.685 85.0846 139.26 96.0096 139.26C113.068 139.26 129.647 135.36 144.789 128.085C160.218 120.585 174.114 109.56 185.326 95.535C194.43 84.21 193.951 65.16 184.847 53.835ZM115.358 59.85L76.6417 90.15C71.7542 86.25 68.5917 80.85 68.5917 75C68.5917 63.225 80.8583 53.55 96 53.55C103.475 53.55 110.375 56.025 115.358 59.85Z" fill="url(#paint0_linear_2_26)"/>
<path d="M155.896 28.125L123.408 53.55C119.824 50.7197 115.553 48.4788 110.846 46.959C106.139 45.4391 101.092 44.6711 96 44.7C74.5333 44.7 57.2833 58.275 57.2833 75C57.2833 83.4 61.5958 90.975 68.5917 96.45L36.2 121.875H36.1042C25.4667 115.125 15.6917 106.5 7.35416 96.3C-2.22918 84.525 -2.22918 65.4 7.35416 53.625C18.4708 39.975 32.0792 29.25 47.2208 21.9C62.3625 14.7 78.9417 10.725 96 10.725C117.371 10.725 138.071 16.875 155.896 28.125ZM123.389 74.985C123.389 86.76 111.122 96.435 95.9808 96.435C95.4058 96.435 94.9267 96.435 94.3517 96.285L123.197 73.71C123.389 74.16 123.389 74.535 123.389 74.985Z" fill="url(#paint1_linear_2_26)"/>
<path d="M189.62 1.7175C186.745 -0.532501 182.049 -0.532501 179.174 1.7175L2.36124 140.167C-0.51376 142.417 -0.51376 146.092 2.36124 148.342C3.04347 148.875 3.85411 149.295 4.74598 149.58C5.63785 149.865 6.59315 150.007 7.5563 150.001C8.51944 149.994 9.4712 149.837 10.3562 149.539C11.2412 149.242 12.0417 148.809 12.7112 148.267L189.62 9.8175C192.59 7.5675 192.59 3.9675 189.62 1.7175Z" fill="url(#paint2_linear_2_26)"/>
<defs>
<linearGradient id="paint0_linear_2_26" x1="50.5" y1="41.5" x2="192" y2="150" gradientUnits="userSpaceOnUse">
<stop stop-color="#038FD0"/>
<stop offset="1" stop-color="#055CAF"/>
</linearGradient>
<linearGradient id="paint1_linear_2_26" x1="50.5" y1="41.5" x2="192" y2="150" gradientUnits="userSpaceOnUse">
<stop stop-color="#038FD0"/>
<stop offset="1" stop-color="#055CAF"/>
</linearGradient>
<linearGradient id="paint2_linear_2_26" x1="50.5" y1="41.5" x2="192" y2="150" gradientUnits="userSpaceOnUse">
<stop stop-color="#038FD0"/>
<stop offset="1" stop-color="#055CAF"/>
</linearGradient>
</defs>
</svg>
