<svg width="200" height="200" viewBox="0 0 200 200" fill="none" xmlns="http://www.w3.org/2000/svg">
<path d="M177.881 22.13C148.288 -7.37667 100.3 -7.37667 70.9078 22.13C50.2131 42.6347 44.0147 72.1414 52.0126 98.1472L5.0246 145.158C1.72544 148.559 -0.573977 155.26 0.125845 160.061L3.12508 181.866C4.2248 189.068 10.9231 195.869 18.1213 196.87L39.9157 199.87C44.7145 200.57 51.4128 198.37 54.8119 194.869L63.0099 186.667C65.0093 184.767 65.0093 181.566 63.0099 179.566L43.6148 160.161C42.2203 158.75 41.4383 156.845 41.4383 154.86C41.4383 152.875 42.2203 150.971 43.6148 149.559C46.5141 146.658 51.3128 146.658 54.2121 149.559L73.7071 169.063C75.6067 170.964 78.8058 170.964 80.7054 169.063L101.9 147.959C127.793 156.06 157.286 149.759 177.881 129.254C207.373 99.7476 207.373 51.6367 177.881 22.13ZM124.994 99.9477C118.365 99.9477 112.008 97.3131 107.321 92.6237C102.634 87.9342 100 81.5739 100 74.942C100 68.3101 102.634 61.9498 107.321 57.2603C112.008 52.5708 118.365 49.9363 124.994 49.9363C131.623 49.9363 137.98 52.5708 142.667 57.2603C147.354 61.9498 149.988 68.3101 149.988 74.942C149.988 81.5739 147.354 87.9342 142.667 92.6237C137.98 97.3131 131.623 99.9477 124.994 99.9477Z" fill="url(#paint0_linear_1_8)"/>
<defs>
<linearGradient id="paint0_linear_1_8" x1="76.5" y1="63.5" x2="200" y2="200" gradientUnits="userSpaceOnUse">
<stop stop-color="#038FD0"/>
<stop offset="1" stop-color="#055CAF"/>
</linearGradient>
</defs>
</svg>
