<svg width="236" height="236" viewBox="0 0 236 236" fill="none" xmlns="http://www.w3.org/2000/svg">
<path d="M167.167 19.6667H68.8333C41.6933 19.6667 19.6667 41.595 19.6667 68.6367V137.273C19.6667 164.315 41.6933 186.243 68.8333 186.243H83.5833C86.2383 186.243 89.7783 188.013 91.45 190.177L106.2 209.745C112.69 218.398 123.31 218.398 129.8 209.745L144.55 190.177C146.418 187.718 149.368 186.243 152.417 186.243H167.167C194.307 186.243 216.333 164.315 216.333 137.273V68.6367C216.333 41.595 194.307 19.6667 167.167 19.6667ZM78.6667 118C73.16 118 68.8333 113.575 68.8333 108.167C68.8333 102.758 73.2583 98.3333 78.6667 98.3333C84.075 98.3333 88.5 102.758 88.5 108.167C88.5 113.575 84.1733 118 78.6667 118ZM118 118C112.493 118 108.167 113.575 108.167 108.167C108.167 102.758 112.592 98.3333 118 98.3333C123.408 98.3333 127.833 102.758 127.833 108.167C127.833 113.575 123.507 118 118 118ZM157.333 118C151.827 118 147.5 113.575 147.5 108.167C147.5 102.758 151.925 98.3333 157.333 98.3333C162.742 98.3333 167.167 102.758 167.167 108.167C167.167 113.575 162.84 118 157.333 118Z" fill="url(#paint0_linear_4_11)"/>
<defs>
<linearGradient id="paint0_linear_4_11" x1="118" y1="118" x2="216" y2="216" gradientUnits="userSpaceOnUse">
<stop stop-color="#038FD0"/>
<stop offset="0.991735" stop-color="#055CAF"/>
</linearGradient>
</defs>
</svg>
