<svg width="248" height="248" viewBox="0 0 248 248" fill="none" xmlns="http://www.w3.org/2000/svg">
<path d="M186 41.3333H162.75V28.4167C162.75 24.18 159.237 20.6667 155 20.6667C150.763 20.6667 147.25 24.18 147.25 28.4167V219.583C147.25 223.82 150.763 227.333 155 227.333C159.237 227.333 162.75 223.82 162.75 219.583V206.667H186C208.837 206.667 227.333 188.17 227.333 165.333V82.6667C227.333 59.83 208.837 41.3333 186 41.3333ZM67.1667 41.3333C44.33 41.3333 25.8333 59.83 25.8333 82.6667V165.333C25.8333 188.17 44.33 206.667 67.1667 206.667H118.833C124.517 206.667 129.167 202.017 129.167 196.333V51.6667C129.167 45.9833 124.517 41.3333 118.833 41.3333H67.1667ZM68.9233 127.927C68.4067 129.167 67.6833 130.303 66.7533 131.337C65.72 132.267 64.5833 132.99 63.3433 133.507C62.1033 134.023 60.76 134.333 59.4167 134.333C58.0733 134.333 56.73 134.023 55.49 133.507C54.25 132.99 53.1133 132.267 52.08 131.337C51.15 130.303 50.4267 129.167 49.8067 127.927C49.309 126.678 49.0631 125.344 49.0833 124C49.0833 121.313 50.22 118.627 52.08 116.663L53.63 115.423C54.25 115.01 54.87 114.7 55.49 114.493C56.11 114.183 56.73 113.977 57.35 113.873C60.8633 113.15 64.3767 114.287 66.7533 116.663C68.6133 118.627 69.75 121.313 69.75 124C69.75 125.343 69.44 126.687 68.9233 127.927ZM105.09 127.927C104.573 129.167 103.85 130.303 102.92 131.337C101.887 132.267 100.75 132.99 99.51 133.507C98.27 134.023 96.9267 134.333 95.5833 134.333C94.24 134.333 92.8967 134.023 91.6567 133.507C90.4167 132.99 89.28 132.267 88.2467 131.337C86.8008 129.891 85.8214 128.045 85.4346 126.038C85.0478 124.03 85.2714 121.953 86.0767 120.073C86.5933 118.73 87.3167 117.697 88.2467 116.663C92.07 112.84 98.9933 112.84 102.92 116.663C104.78 118.627 105.917 121.313 105.917 124C105.917 125.343 105.607 126.687 105.09 127.927Z" fill="url(#paint0_linear_4_6)"/>
<path d="M181 43H159.625V31.125C159.625 27.23 156.395 24 152.5 24C148.605 24 145.375 27.23 145.375 31.125V206.875C145.375 210.77 148.605 214 152.5 214C156.395 214 159.625 210.77 159.625 206.875V195H181C201.995 195 219 177.995 219 157V81C219 60.005 201.995 43 181 43ZM71.75 43C50.755 43 33.75 60.005 33.75 81V157C33.75 177.995 50.755 195 71.75 195H119.25C124.475 195 128.75 190.725 128.75 185.5V52.5C128.75 47.275 124.475 43 119.25 43H71.75ZM73.365 122.61C72.89 123.75 72.225 124.795 71.37 125.745C70.42 126.6 69.375 127.265 68.235 127.74C67.095 128.215 65.86 128.5 64.625 128.5C63.39 128.5 62.155 128.215 61.015 127.74C59.875 127.265 58.83 126.6 57.88 125.745C57.025 124.795 56.36 123.75 55.79 122.61C55.3324 121.462 55.1064 120.235 55.125 119C55.125 116.53 56.17 114.06 57.88 112.255L59.305 111.115C59.875 110.735 60.445 110.45 61.015 110.26C61.585 109.975 62.155 109.785 62.725 109.69C65.955 109.025 69.185 110.07 71.37 112.255C73.08 114.06 74.125 116.53 74.125 119C74.125 120.235 73.84 121.47 73.365 122.61ZM106.615 122.61C106.14 123.75 105.475 124.795 104.62 125.745C103.67 126.6 102.625 127.265 101.485 127.74C100.345 128.215 99.11 128.5 97.875 128.5C96.64 128.5 95.405 128.215 94.265 127.74C93.125 127.265 92.08 126.6 91.13 125.745C89.8008 124.416 88.9003 122.719 88.5447 120.873C88.1891 119.028 88.3947 117.118 89.135 115.39C89.61 114.155 90.275 113.205 91.13 112.255C94.645 108.74 101.01 108.74 104.62 112.255C106.33 114.06 107.375 116.53 107.375 119C107.375 120.235 107.09 121.47 106.615 122.61Z" fill="url(#paint1_linear_4_6)"/>
<defs>
<linearGradient id="paint0_linear_4_6" x1="126.583" y1="20.6667" x2="126.583" y2="227.333" gradientUnits="userSpaceOnUse">
<stop stop-color="#038FD0"/>
<stop offset="1" stop-color="#055CAF"/>
</linearGradient>
<linearGradient id="paint1_linear_4_6" x1="126.375" y1="24" x2="126.375" y2="214" gradientUnits="userSpaceOnUse">
<stop stop-color="#038FD0"/>
<stop offset="1" stop-color="#055CAF"/>
</linearGradient>
</defs>
</svg>
