<svg width="200" height="150" viewBox="0 0 200 150" fill="none" xmlns="http://www.w3.org/2000/svg">
<path d="M192.5 50.0876C169.4 18.3012 135.6 0 100 0C82.2 0 64.9 4.55342 49.1 13.0473C33.3 21.6287 19.1 34.1506 7.5 50.0876C-2.5 63.8354 -2.5 86.1646 7.5 99.9124C30.6 131.786 64.4 150 100 150C117.8 150 135.1 145.447 150.9 136.953C166.7 128.371 180.9 115.849 192.5 99.9124C202.5 86.2522 202.5 63.8354 192.5 50.0876ZM100 110.42C77.6 110.42 59.6 94.5709 59.6 75.0438C59.6 55.5166 77.6 39.6673 100 39.6673C122.4 39.6673 140.4 55.5166 140.4 75.0438C140.4 94.5709 122.4 110.42 100 110.42Z" fill="url(#paint0_linear_2_19)"/>
<path d="M99.9801 50C92.4081 50 85.1463 52.6339 79.7922 57.3223C74.438 62.0107 71.4301 68.3696 71.4301 75C71.4301 81.6304 74.438 87.9893 79.7922 92.6777C85.1463 97.3661 92.4081 100 99.9801 100C115.68 100 128.58 88.7916 128.58 75.0438C128.58 61.296 115.68 50 99.9801 50Z" fill="url(#paint1_linear_2_19)"/>
<defs>
<linearGradient id="paint0_linear_2_19" x1="65.5" y1="39" x2="158.299" y2="175.805" gradientUnits="userSpaceOnUse">
<stop stop-color="#038FD0"/>
<stop offset="1" stop-color="#055CAF"/>
</linearGradient>
<linearGradient id="paint1_linear_2_19" x1="90.1467" y1="63" x2="122.547" y2="103.947" gradientUnits="userSpaceOnUse">
<stop stop-color="#038FD0"/>
<stop offset="1" stop-color="#055CAF"/>
</linearGradient>
</defs>
</svg>
