<svg width="200" height="200" viewBox="0 0 200 200" fill="none" xmlns="http://www.w3.org/2000/svg">
<path d="M100 97.561C114.588 97.561 128.579 92.4216 138.895 83.2735C149.21 74.1254 155.005 61.7179 155.005 48.7805C155.005 35.8431 149.21 23.4356 138.895 14.2875C128.579 5.13936 114.588 0 100 0C85.4116 0 71.4208 5.13936 61.1052 14.2875C50.7897 23.4356 44.9945 35.8431 44.9945 48.7805C44.9945 61.7179 50.7897 74.1254 61.1052 83.2735C71.4208 92.4216 85.4116 97.561 100 97.561ZM100 121.951C44.8845 121.951 0 154.732 0 195.122C0 197.854 2.42024 200 5.50055 200H194.499C197.58 200 200 197.854 200 195.122C200 154.732 155.116 121.951 100 121.951Z" fill="url(#paint0_linear_1_6)"/>
<defs>
<linearGradient id="paint0_linear_1_6" x1="100" y1="100" x2="200" y2="200" gradientUnits="userSpaceOnUse">
<stop stop-color="#038FD0"/>
<stop offset="1" stop-color="#055CAF"/>
</linearGradient>
</defs>
</svg>
